<svg width="114" height="143" viewBox="0 0 114 143" fill="none" xmlns="http://www.w3.org/2000/svg">
<g id="Group 35">
<g id="Group">
<g id="Group_2">
<path id="Vector" d="M21.9 22.1704L28.1 73.4004C28.44 76.1704 29.71 78.7404 31.71 80.6904L74.42 122.18" stroke="#FF69CC" stroke-width="12" stroke-miterlimit="10"/>
<g id="Group_3">
<g id="Group_4">
<path id="Vector_2" d="M80.48 135.02C77.9 135.02 75.28 133.81 73.28 131.7C67.26 125.34 79.49 110.73 81.4 108.53C88.3 96.3803 87.33 81.5904 78.54 64.5804C71.31 50.5904 60.2 38.1904 52.22 31.2504C44.18 24.2604 33.03 24.2604 24.89 24.2604H23.52C17.22 24.2604 11.78 24.2604 9.64003 20.7904C6.66003 15.9604 7.65003 12.6704 8.50003 11.1404C9.73003 8.93035 12.13 7.61035 14.91 7.61035C16.43 7.61035 17.97 8.02035 19.38 8.78035C20.26 9.26035 21.01 9.86035 21.8 10.4904C23.89 12.1704 26.06 13.9004 31.31 13.9004C32.04 13.9004 32.79 13.8704 33.59 13.8404C34.48 13.8004 35.4 13.7704 36.39 13.7704C44.78 13.7704 55.22 16.5704 74.58 36.8604C88.18 51.1104 93.38 67.6804 95.35 79.0804C97.67 92.5104 96.35 103.34 93.93 106.72C93.53 107.28 93.11 107.85 92.69 108.43C89.01 113.45 84.84 119.15 86.75 124.2C87.9 127.25 87.74 130.07 86.3 132.14C85.03 133.97 82.91 135.02 80.48 135.02Z" fill="#7062F1"/>
<g id="Clip path group">
<mask id="mask0_336_1465" style="mask-type:luminance" maskUnits="userSpaceOnUse" x="7" y="7" width="90" height="129">
<g id="b">
<path id="Vector_3" d="M80.48 135.02C77.9 135.02 75.28 133.81 73.28 131.7C67.26 125.34 79.49 110.73 81.4 108.53C88.3 96.3803 87.33 81.5904 78.54 64.5804C71.31 50.5904 60.2 38.1904 52.22 31.2504C44.18 24.2604 33.03 24.2604 24.89 24.2604H23.52C17.22 24.2604 11.78 24.2604 9.64003 20.7904C6.66003 15.9604 7.65003 12.6704 8.50003 11.1404C9.73003 8.93035 12.13 7.61035 14.91 7.61035C16.43 7.61035 17.97 8.02035 19.38 8.78035C20.26 9.26035 21.01 9.86035 21.8 10.4904C23.89 12.1704 26.06 13.9004 31.31 13.9004C32.04 13.9004 32.79 13.8704 33.59 13.8404C34.48 13.8004 35.4 13.7704 36.39 13.7704C44.78 13.7704 55.22 16.5704 74.58 36.8604C88.18 51.1104 93.38 67.6804 95.35 79.0804C97.67 92.5104 96.35 103.34 93.93 106.72C93.53 107.28 93.11 107.85 92.69 108.43C89.01 113.45 84.84 119.15 86.75 124.2C87.9 127.25 87.74 130.07 86.3 132.14C85.03 133.97 82.91 135.02 80.48 135.02Z" fill="white"/>
</g>
</mask>
<g mask="url(#mask0_336_1465)">
<g id="Group_5">
<path id="Vector_4" d="M4.14003 14.0303C4.14003 14.0303 8.74003 11.6403 11.5 13.2903C14.26 14.9403 15 20.4203 30.46 19.9203C47.21 19.3703 64.99 32.7103 70.4 44.0303C75.81 55.3503 52.1 42.0103 52.1 42.0103C52.1 42.0103 2.49003 51.5803 4.14003 14.0403V14.0303Z" fill="#554FC1" stroke="#FF69CC" stroke-width="12" stroke-miterlimit="10"/>
</g>
</g>
</g>
<path id="Vector_5" d="M80.48 135.02C77.9 135.02 75.28 133.81 73.28 131.7C67.26 125.34 79.49 110.73 81.4 108.53C88.3 96.3804 87.33 81.5904 78.54 64.5804C71.31 50.5904 60.2 38.1904 52.22 31.2504C44.18 24.2604 33.03 24.2604 24.89 24.2604H23.52C17.22 24.2604 11.78 24.2604 9.64003 20.7904C6.66003 15.9604 7.65003 12.6704 8.50003 11.1404C9.73003 8.93035 12.13 7.61035 14.91 7.61035C16.43 7.61035 17.97 8.02035 19.38 8.78035C20.26 9.26035 21.01 9.86035 21.8 10.4904C23.89 12.1704 26.06 13.9004 31.31 13.9004C32.04 13.9004 32.79 13.8704 33.59 13.8404C34.48 13.8004 35.4 13.7704 36.39 13.7704C44.78 13.7704 55.22 16.5704 74.58 36.8604C88.18 51.1104 93.38 67.6804 95.35 79.0804C97.67 92.5104 96.35 103.34 93.93 106.72C93.53 107.28 93.11 107.85 92.69 108.43C89.01 113.45 84.84 119.15 86.75 124.2C87.9 127.25 87.74 130.07 86.3 132.14C85.03 133.97 82.91 135.02 80.48 135.02Z" stroke="#FF69CC" stroke-width="12" stroke-miterlimit="10"/>
</g>
<g id="Vector_6">
<path d="M14.92 9.22023C16.13 9.22023 17.4 9.53023 18.62 10.2002C21.56 11.8002 23.5 15.5202 31.32 15.5202C32.9 15.5202 34.56 15.3902 36.4 15.3902C43.69 15.3902 53.85 17.4602 73.42 37.9802C97.94 63.6802 96.76 100.03 92.62 105.79C88.48 111.55 82.78 118.28 85.23 124.78C87.27 130.18 84.27 133.42 80.47 133.42C78.48 133.42 76.27 132.53 74.44 130.6C69.12 124.99 82.71 109.47 82.71 109.47C99.36 80.4202 68.53 43.3202 53.26 30.0402C44.97 22.8302 33.75 22.6502 24.87 22.6502C24.41 22.6502 23.96 22.6502 23.51 22.6502C17.4 22.6502 12.61 22.5602 11 19.9502C6.99003 13.4502 10.46 9.22023 14.9 9.22023M14.9 6.00023C11.53 6.00023 8.61003 7.63023 7.08003 10.3502C6.05003 12.1902 4.84003 16.1002 8.25003 21.6302C10.86 25.8602 17 25.8602 23.51 25.8602H24.87C32.76 25.8602 43.56 25.8602 51.15 32.4602C64.47 44.0402 95.53 80.0502 80.07 107.6C79.24 108.58 76.29 112.13 73.82 116.27C69.36 123.74 68.79 129.3 72.11 132.8C74.41 135.23 77.46 136.62 80.48 136.62C83.5 136.62 86.05 135.32 87.62 133.05C89.36 130.53 89.59 127.18 88.25 123.62C86.65 119.38 90.38 114.29 93.99 109.36C94.42 108.78 94.84 108.2 95.24 107.64C98.37 103.29 99.08 91.1502 96.94 78.7902C94.93 67.1702 89.62 50.2802 75.75 35.7302C55.98 15.0202 45.15 12.1602 36.4 12.1602C35.38 12.1602 34.44 12.2002 33.54 12.2302C32.76 12.2602 32.02 12.2902 31.32 12.2902C26.63 12.2902 24.78 10.8102 22.81 9.23023C22 8.58023 21.16 7.91023 20.16 7.36023C18.52 6.46023 16.71 5.99023 14.92 5.99023L14.9 6.00023Z" fill="#F5F5F5"/>
<path d="M14.92 9.22023C16.13 9.22023 17.4 9.53023 18.62 10.2002C21.56 11.8002 23.5 15.5202 31.32 15.5202C32.9 15.5202 34.56 15.3902 36.4 15.3902C43.69 15.3902 53.85 17.4602 73.42 37.9802C97.94 63.6802 96.76 100.03 92.62 105.79C88.48 111.55 82.78 118.28 85.23 124.78C87.27 130.18 84.27 133.42 80.47 133.42C78.48 133.42 76.27 132.53 74.44 130.6C69.12 124.99 82.71 109.47 82.71 109.47C99.36 80.4202 68.53 43.3202 53.26 30.0402C44.97 22.8302 33.75 22.6502 24.87 22.6502C24.41 22.6502 23.96 22.6502 23.51 22.6502C17.4 22.6502 12.61 22.5602 11 19.9502C6.99003 13.4502 10.46 9.22023 14.9 9.22023M14.9 6.00023C11.53 6.00023 8.61003 7.63023 7.08003 10.3502C6.05003 12.1902 4.84003 16.1002 8.25003 21.6302C10.86 25.8602 17 25.8602 23.51 25.8602H24.87C32.76 25.8602 43.56 25.8602 51.15 32.4602C64.47 44.0402 95.53 80.0502 80.07 107.6C79.24 108.58 76.29 112.13 73.82 116.27C69.36 123.74 68.79 129.3 72.11 132.8C74.41 135.23 77.46 136.62 80.48 136.62C83.5 136.62 86.05 135.32 87.62 133.05C89.36 130.53 89.59 127.18 88.25 123.62C86.65 119.38 90.38 114.29 93.99 109.36C94.42 108.78 94.84 108.2 95.24 107.64C98.37 103.29 99.08 91.1502 96.94 78.7902C94.93 67.1702 89.62 50.2802 75.75 35.7302C55.98 15.0202 45.15 12.1602 36.4 12.1602C35.38 12.1602 34.44 12.2002 33.54 12.2302C32.76 12.2602 32.02 12.2902 31.32 12.2902C26.63 12.2902 24.78 10.8102 22.81 9.23023C22 8.58023 21.16 7.91023 20.16 7.36023C18.52 6.46023 16.71 5.99023 14.92 5.99023L14.9 6.00023Z" stroke="#FF69CC" stroke-width="12" stroke-miterlimit="10"/>
</g>
</g>
<g id="Group_6">
<g id="Group_7">
<path id="Vector_7" d="M23.68 80.1802L18.2 83.1502C20.62 84.6202 13.88 93.5002 18.71 91.1102C27.62 86.7102 23.68 80.1802 23.68 80.1802Z" fill="#7062F1" stroke="#FF69CC" stroke-width="12" stroke-miterlimit="10"/>
<path id="Vector_8" d="M18.2 82.9303L23.64 79.8903C23.64 79.8903 20.24 73.0703 11.75 78.2303C7.15003 81.0303 18.25 80.0903 18.2 82.9303Z" fill="#554FC1" stroke="#FF69CC" stroke-width="12" stroke-miterlimit="10"/>
</g>
<path id="Vector_9" d="M93.77 43.1104L15.37 84.7104" stroke="#FF69CC" stroke-width="12" stroke-miterlimit="10"/>
<g id="Group_8">
<g id="Group_9">
<path id="Vector_10" d="M97.56 53.0602C94.76 53.0602 91.32 51.8702 90.82 48.5102C90.5 46.4002 90.58 45.1602 91.09 44.0802C91.13 44.0102 91.15 43.9402 91.17 43.8902C90.82 43.7502 90.18 43.6202 89.76 43.5302C87.78 43.1202 86.41 41.2202 86.33 38.7902C86.25 36.4102 87.5 33.6402 90.47 32.8302C91.38 32.5802 92.34 32.4502 93.32 32.4502C99.02 32.4502 105.02 37.0602 105.28 39.7302V39.8602C106.04 47.4602 103.32 50.8202 100.9 52.3002C99.83 52.9602 98.35 53.0502 97.57 53.0502L97.56 53.0602Z" fill="#FF69CC"/>
<g id="Clip path group_2">
<mask id="mask1_336_1465" style="mask-type:luminance" maskUnits="userSpaceOnUse" x="86" y="32" width="20" height="22">
<g id="c">
<path id="Vector_11" d="M97.56 53.0602C94.76 53.0602 91.32 51.8702 90.82 48.5102C90.5 46.4002 90.58 45.1602 91.09 44.0802C91.13 44.0102 91.15 43.9402 91.17 43.8902C90.82 43.7502 90.18 43.6202 89.76 43.5302C87.78 43.1202 86.41 41.2202 86.33 38.7902C86.25 36.4102 87.5 33.6402 90.47 32.8302C91.38 32.5802 92.34 32.4502 93.32 32.4502C99.02 32.4502 105.02 37.0602 105.28 39.7302V39.8602C106.04 47.4602 103.32 50.8202 100.9 52.3002C99.83 52.9602 98.35 53.0502 97.57 53.0502L97.56 53.0602Z" fill="white"/>
</g>
</mask>
<g mask="url(#mask1_336_1465)">
<g id="Group_10">
<path id="Vector_12" d="M90.76 44.5103C90.76 44.5103 92.03 43.2003 93.77 43.5403C95.51 43.8803 92.98 48.5003 97.28 48.6403C101.59 48.7903 101.17 36.2903 105.87 38.0203C110.56 39.7503 110.08 52.3803 110.08 52.3803L99.04 59.0103C99.04 59.0103 83.44 49.4203 90.76 44.5203V44.5103Z" fill="#DD5EB9" stroke="#FF69CC" stroke-width="12" stroke-miterlimit="10"/>
</g>
</g>
</g>
<path id="Vector_13" d="M97.56 53.0602C94.76 53.0602 91.32 51.8702 90.82 48.5102C90.5 46.4002 90.58 45.1602 91.09 44.0802C91.13 44.0102 91.15 43.9402 91.17 43.8902C90.82 43.7502 90.18 43.6202 89.76 43.5302C87.78 43.1202 86.41 41.2202 86.33 38.7902C86.25 36.4102 87.5 33.6402 90.47 32.8302C91.38 32.5802 92.34 32.4502 93.32 32.4502C99.02 32.4502 105.02 37.0602 105.28 39.7302V39.8602C106.04 47.4602 103.32 50.8202 100.9 52.3002C99.83 52.9602 98.35 53.0502 97.57 53.0502L97.56 53.0602Z" stroke="#FF69CC" stroke-width="12" stroke-miterlimit="10"/>
</g>
<g id="Vector_14">
<path d="M93.32 34.0703C98.67 34.0703 103.54 38.4503 103.67 39.8903C103.79 41.1803 104.63 48.1303 100.05 50.9303C99.53 51.2503 98.59 51.4503 97.56 51.4503C95.39 51.4503 92.76 50.6003 92.41 48.2703C92.14 46.4603 92.2 45.4903 92.54 44.7703C93.54 42.6603 91.8 42.3103 90.06 41.9503C87.2 41.3603 86.98 35.4603 90.9 34.3803C91.71 34.1603 92.52 34.0603 93.33 34.0603M93.33 30.8403C92.21 30.8403 91.11 30.9903 90.05 31.2703C86.74 32.1703 84.6 35.2203 84.72 38.8403C84.82 41.9103 86.58 44.3603 89.13 45.0303C88.93 46.2603 89.05 47.5203 89.23 48.7403C89.76 52.2803 93.11 54.6603 97.57 54.6603C98.53 54.6603 100.34 54.5303 101.75 53.6703C104.56 51.9503 107.73 48.1303 106.91 39.7003V39.5803C106.65 36.9603 103.58 34.6403 102.27 33.7603C100.65 32.6703 97.33 30.8403 93.34 30.8403H93.33Z" fill="#F5F5F5"/>
<path d="M93.32 34.0703C98.67 34.0703 103.54 38.4503 103.67 39.8903C103.79 41.1803 104.63 48.1303 100.05 50.9303C99.53 51.2503 98.59 51.4503 97.56 51.4503C95.39 51.4503 92.76 50.6003 92.41 48.2703C92.14 46.4603 92.2 45.4903 92.54 44.7703C93.54 42.6603 91.8 42.3103 90.06 41.9503C87.2 41.3603 86.98 35.4603 90.9 34.3803C91.71 34.1603 92.52 34.0603 93.33 34.0603M93.33 30.8403C92.21 30.8403 91.11 30.9903 90.05 31.2703C86.74 32.1703 84.6 35.2203 84.72 38.8403C84.82 41.9103 86.58 44.3603 89.13 45.0303C88.93 46.2603 89.05 47.5203 89.23 48.7403C89.76 52.2803 93.11 54.6603 97.57 54.6603C98.53 54.6603 100.34 54.5303 101.75 53.6703C104.56 51.9503 107.73 48.1303 106.91 39.7003V39.5803C106.65 36.9603 103.58 34.6403 102.27 33.7603C100.65 32.6703 97.33 30.8403 93.34 30.8403H93.33Z" stroke="#FF69CC" stroke-width="12" stroke-miterlimit="10"/>
</g>
</g>
</g>
</g>
<path id="Vector_15" d="M97.94 36.7802C96.47 35.8502 94.62 35.5602 92.93 35.9802" stroke="#FF69CC" stroke-width="12" stroke-miterlimit="10"/>
</g>
<g id="Group_11">
<g id="Group_12">
<path id="Vector_16" d="M21.9 22.1704L28.1 73.4004C28.44 76.1704 29.71 78.7404 31.71 80.6904L74.42 122.18" stroke="#F5F5F5" stroke-width="3.22" stroke-linecap="round" stroke-linejoin="round"/>
<g id="Group_13">
<g id="Group_14">
<path id="Vector_17" d="M80.48 135.02C77.9 135.02 75.28 133.81 73.28 131.7C67.26 125.34 79.49 110.73 81.4 108.53C88.3 96.3803 87.33 81.5904 78.54 64.5804C71.31 50.5904 60.2 38.1904 52.22 31.2504C44.18 24.2604 33.03 24.2604 24.89 24.2604H23.52C17.22 24.2604 11.78 24.2604 9.64003 20.7904C6.66003 15.9604 7.65003 12.6704 8.50003 11.1404C9.73003 8.93035 12.13 7.61035 14.91 7.61035C16.43 7.61035 17.97 8.02035 19.38 8.78035C20.26 9.26035 21.01 9.86035 21.8 10.4904C23.89 12.1704 26.06 13.9004 31.31 13.9004C32.04 13.9004 32.79 13.8704 33.59 13.8404C34.48 13.8004 35.4 13.7704 36.39 13.7704C44.78 13.7704 55.22 16.5704 74.58 36.8604C88.18 51.1104 93.38 67.6804 95.35 79.0804C97.67 92.5104 96.35 103.34 93.93 106.72C93.53 107.28 93.11 107.85 92.69 108.43C89.01 113.45 84.84 119.15 86.75 124.2C87.9 127.25 87.74 130.07 86.3 132.14C85.03 133.97 82.91 135.02 80.48 135.02Z" fill="#7062F1"/>
<g id="Clip path group_3">
<mask id="mask2_336_1465" style="mask-type:luminance" maskUnits="userSpaceOnUse" x="7" y="7" width="90" height="129">
<g id="d">
<path id="Vector_18" d="M80.48 135.02C77.9 135.02 75.28 133.81 73.28 131.7C67.26 125.34 79.49 110.73 81.4 108.53C88.3 96.3803 87.33 81.5904 78.54 64.5804C71.31 50.5904 60.2 38.1904 52.22 31.2504C44.18 24.2604 33.03 24.2604 24.89 24.2604H23.52C17.22 24.2604 11.78 24.2604 9.64003 20.7904C6.66003 15.9604 7.65003 12.6704 8.50003 11.1404C9.73003 8.93035 12.13 7.61035 14.91 7.61035C16.43 7.61035 17.97 8.02035 19.38 8.78035C20.26 9.26035 21.01 9.86035 21.8 10.4904C23.89 12.1704 26.06 13.9004 31.31 13.9004C32.04 13.9004 32.79 13.8704 33.59 13.8404C34.48 13.8004 35.4 13.7704 36.39 13.7704C44.78 13.7704 55.22 16.5704 74.58 36.8604C88.18 51.1104 93.38 67.6804 95.35 79.0804C97.67 92.5104 96.35 103.34 93.93 106.72C93.53 107.28 93.11 107.85 92.69 108.43C89.01 113.45 84.84 119.15 86.75 124.2C87.9 127.25 87.74 130.07 86.3 132.14C85.03 133.97 82.91 135.02 80.48 135.02Z" fill="white"/>
</g>
</mask>
<g mask="url(#mask2_336_1465)">
<g id="Group_15">
<path id="Vector_19" d="M4.14003 14.0303C4.14003 14.0303 8.74003 11.6403 11.5 13.2903C14.26 14.9403 15 20.4203 30.46 19.9203C47.21 19.3703 64.99 32.7103 70.4 44.0303C75.81 55.3503 52.1 42.0103 52.1 42.0103C52.1 42.0103 2.49003 51.5803 4.14003 14.0403V14.0303Z" fill="#554FC1"/>
</g>
</g>
</g>
</g>
<path id="Vector_20" d="M14.92 9.22023C16.13 9.22023 17.4 9.53023 18.62 10.2002C21.56 11.8002 23.5 15.5202 31.32 15.5202C32.9 15.5202 34.56 15.3902 36.4 15.3902C43.69 15.3902 53.85 17.4602 73.42 37.9802C97.94 63.6802 96.76 100.03 92.62 105.79C88.48 111.55 82.78 118.28 85.23 124.78C87.27 130.18 84.27 133.42 80.47 133.42C78.48 133.42 76.27 132.53 74.44 130.6C69.12 124.99 82.71 109.47 82.71 109.47C99.36 80.4202 68.53 43.3202 53.26 30.0402C44.97 22.8302 33.75 22.6502 24.87 22.6502C24.41 22.6502 23.96 22.6502 23.51 22.6502C17.4 22.6502 12.61 22.5602 11 19.9502C6.99003 13.4502 10.46 9.22023 14.9 9.22023M14.9 6.00023C11.53 6.00023 8.61003 7.63023 7.08003 10.3502C6.05003 12.1902 4.84003 16.1002 8.25003 21.6302C10.86 25.8602 17 25.8602 23.51 25.8602H24.87C32.76 25.8602 43.56 25.8602 51.15 32.4602C64.47 44.0402 95.53 80.0502 80.07 107.6C79.24 108.58 76.29 112.13 73.82 116.27C69.36 123.74 68.79 129.3 72.11 132.8C74.41 135.23 77.46 136.62 80.48 136.62C83.5 136.62 86.05 135.32 87.62 133.05C89.36 130.53 89.59 127.18 88.25 123.62C86.65 119.38 90.38 114.29 93.99 109.36C94.42 108.78 94.84 108.2 95.24 107.64C98.37 103.29 99.08 91.1502 96.94 78.7902C94.93 67.1702 89.62 50.2802 75.75 35.7302C55.98 15.0202 45.15 12.1602 36.4 12.1602C35.38 12.1602 34.44 12.2002 33.54 12.2302C32.76 12.2602 32.02 12.2902 31.32 12.2902C26.63 12.2902 24.78 10.8102 22.81 9.23023C22 8.58023 21.16 7.91023 20.16 7.36023C18.52 6.46023 16.71 5.99023 14.92 5.99023L14.9 6.00023Z" fill="#F5F5F5"/>
</g>
<g id="Group_16">
<g id="Group_17">
<path id="Vector_21" d="M23.68 80.1802L18.2 83.1502C20.62 84.6202 13.88 93.5002 18.71 91.1102C27.62 86.7102 23.68 80.1802 23.68 80.1802Z" fill="#7062F1" stroke="#F5F5F5" stroke-width="2.7" stroke-miterlimit="10"/>
<path id="Vector_22" d="M18.2 82.9303L23.64 79.8903C23.64 79.8903 20.24 73.0703 11.75 78.2303C7.15003 81.0303 18.25 80.0903 18.2 82.9303Z" fill="#554FC1" stroke="#F5F5F5" stroke-width="2.7" stroke-miterlimit="10"/>
</g>
<path id="Vector_23" d="M93.77 43.1104L15.37 84.7104" stroke="#F5F5F5" stroke-width="3.22" stroke-linecap="round" stroke-linejoin="round"/>
<g id="Group_18">
<g id="Group_19">
<path id="Vector_24" d="M97.56 53.0602C94.76 53.0602 91.32 51.8702 90.82 48.5102C90.5 46.4002 90.58 45.1602 91.09 44.0802C91.13 44.0102 91.15 43.9402 91.17 43.8902C90.82 43.7502 90.18 43.6202 89.76 43.5302C87.78 43.1202 86.41 41.2202 86.33 38.7902C86.25 36.4102 87.5 33.6402 90.47 32.8302C91.38 32.5802 92.34 32.4502 93.32 32.4502C99.02 32.4502 105.02 37.0602 105.28 39.7302V39.8602C106.04 47.4602 103.32 50.8202 100.9 52.3002C99.83 52.9602 98.35 53.0502 97.57 53.0502L97.56 53.0602Z" fill="#FF69CC"/>
<g id="Clip path group_4">
<mask id="mask3_336_1465" style="mask-type:luminance" maskUnits="userSpaceOnUse" x="86" y="32" width="20" height="22">
<g id="e">
<path id="Vector_25" d="M97.56 53.0602C94.76 53.0602 91.32 51.8702 90.82 48.5102C90.5 46.4002 90.58 45.1602 91.09 44.0802C91.13 44.0102 91.15 43.9402 91.17 43.8902C90.82 43.7502 90.18 43.6202 89.76 43.5302C87.78 43.1202 86.41 41.2202 86.33 38.7902C86.25 36.4102 87.5 33.6402 90.47 32.8302C91.38 32.5802 92.34 32.4502 93.32 32.4502C99.02 32.4502 105.02 37.0602 105.28 39.7302V39.8602C106.04 47.4602 103.32 50.8202 100.9 52.3002C99.83 52.9602 98.35 53.0502 97.57 53.0502L97.56 53.0602Z" fill="white"/>
</g>
</mask>
<g mask="url(#mask3_336_1465)">
<g id="Group_20">
<path id="Vector_26" d="M90.76 44.5103C90.76 44.5103 92.03 43.2003 93.77 43.5403C95.51 43.8803 92.98 48.5003 97.28 48.6403C101.59 48.7903 101.17 36.2903 105.87 38.0203C110.56 39.7503 110.08 52.3803 110.08 52.3803L99.04 59.0103C99.04 59.0103 83.44 49.4203 90.76 44.5203V44.5103Z" fill="#DD5EB9"/>
</g>
</g>
</g>
</g>
<path id="Vector_27" d="M93.32 34.0703C98.67 34.0703 103.54 38.4503 103.67 39.8903C103.79 41.1803 104.63 48.1303 100.05 50.9303C99.53 51.2503 98.59 51.4503 97.56 51.4503C95.39 51.4503 92.76 50.6003 92.41 48.2703C92.14 46.4603 92.2 45.4903 92.54 44.7703C93.54 42.6603 91.8 42.3103 90.06 41.9503C87.2 41.3603 86.98 35.4603 90.9 34.3803C91.71 34.1603 92.52 34.0603 93.33 34.0603M93.33 30.8403C92.21 30.8403 91.11 30.9903 90.05 31.2703C86.74 32.1703 84.6 35.2203 84.72 38.8403C84.82 41.9103 86.58 44.3603 89.13 45.0303C88.93 46.2603 89.05 47.5203 89.23 48.7403C89.76 52.2803 93.11 54.6603 97.57 54.6603C98.53 54.6603 100.34 54.5303 101.75 53.6703C104.56 51.9503 107.73 48.1303 106.91 39.7003V39.5803C106.65 36.9603 103.58 34.6403 102.27 33.7603C100.65 32.6703 97.33 30.8403 93.34 30.8403H93.33Z" fill="#F5F5F5"/>
</g>
</g>
</g>
<path id="Vector_28" d="M97.94 36.7802C96.47 35.8502 94.62 35.5602 92.93 35.9802" stroke="#F5F5F5" stroke-width="1.08" stroke-linecap="round" stroke-linejoin="round"/>
</g>
</g>
</svg>
