<svg width="9" height="8" viewBox="0 0 9 8" fill="none" xmlns="http://www.w3.org/2000/svg">
<path d="M4.17145 4.19267C4.17145 3.29301 3.43049 2.71323 3.04328 1.98184C2.64798 1.23514 1.80967 1.49356 1.28735 1.96364C0.105502 3.0273 2.4951 5.49538 3.18885 6.36257C3.64743 6.93579 4.43442 7.21394 5.1131 7.06312C5.70794 6.93093 6.80672 5.78317 6.95091 5.13432C7.14271 4.27129 8.0917 0.52154 6.05475 1.42685C5.5047 1.67132 4.21418 2.11342 4.17145 2.88255C4.15624 3.15636 4.17089 3.78326 3.76203 3.78326C3.57959 3.78326 3.42877 2.93784 3.28893 2.78247C3.17118 2.65163 2.53451 2.01823 2.37002 2.01823C2.0444 2.01823 2.20312 2.97783 2.26995 3.1282C2.42865 3.48529 2.50881 3.88567 2.79763 4.17448C2.96409 4.34092 2.65793 3.71942 2.53379 3.51941C2.47908 3.43127 2.26057 2.91561 2.16077 2.8871C1.83405 2.79375 1.61011 2.34929 1.71951 2.84161C1.82364 3.31017 2.29427 4.02593 2.62022 4.35189C3.01126 4.74294 3.18873 4.83869 3.72109 4.60209C4.03116 4.46428 4.4384 4.34727 4.68094 4.12899C5.15896 3.69877 5.6604 3.32238 6.11844 2.86435C6.22031 2.76249 6.2645 2.64747 6.36409 2.53682C6.43697 2.45584 6.50074 1.95442 6.3186 2.08192C6.0139 2.2952 5.73157 2.72236 5.35875 2.80521C5.21125 2.83799 4.26243 3.03843 4.26243 3.24647C4.26243 3.24796 4.8752 2.94095 4.90839 2.92804C5.19555 2.81637 5.46443 2.80066 5.76816 2.80066C5.95184 2.80066 5.97287 3.55834 5.97287 3.74232C5.97287 4.07426 5.50999 4.65554 6.01381 4.15173C6.14664 4.0189 6.7421 3.40261 6.54605 3.25557C6.28948 3.06315 5.29848 4.97479 4.95388 4.67942C4.6772 4.44226 4.62301 3.80821 4.3807 3.49667C4.18817 3.24912 3.60397 2.51523 3.82572 2.73698C4.35395 3.26521 4.42239 3.70138 5.29961 3.70138C5.77648 3.70138 5.75203 3.91776 6.07295 4.17448C6.2342 4.30348 6.42777 4.0704 6.42777 3.92883C6.42777 3.76352 6.16266 3.73114 6.05475 3.68318C5.55266 3.46003 5.04297 3.56961 4.49898 3.53761C4.16722 3.5181 3.96829 2.9577 3.86211 2.71878C3.70237 2.35935 3.60331 2.05138 3.28893 1.79987C2.68706 1.31838 2.12852 1.14844 1.34649 1.32223C0.521673 1.50552 0.650485 2.33319 0.650485 2.92349C0.650485 3.28862 0.714539 3.62686 0.918881 3.93338C1.23545 4.40824 1.85622 4.75148 2.12438 5.22076C2.38451 5.67599 3.18352 6.43695 3.63921 6.6901C3.9286 6.85087 4.19615 7.22234 4.53992 7.22234C4.89344 7.22234 5.32779 7.03537 5.64534 6.87661C6.20994 6.59432 6.48953 5.80414 6.89177 5.35723C7.18119 5.03568 7.6924 4.02123 7.6924 3.57855C7.6924 2.92528 8.09831 2.14121 7.61052 1.53148C7.25085 1.08189 5.83482 1.24965 5.64533 1.81807" stroke="#F5F5F5" stroke-linecap="round"/>
</svg>
